<svg width="408" height="27" viewBox="0 0 408 27" fill="none" xmlns="http://www.w3.org/2000/svg">
<path d="M203.496 0.0474833C203.249 -0.0669674 202.959 0.0474596 202.847 0.301682C200.695 5.24534 202.776 11.7508 207.586 15.1124C208.375 15.6634 209.233 16.1232 210.137 16.5101C210.375 18.395 211.366 24.7698 213.922 24.7698C214.119 24.7698 214.319 24.7313 214.517 24.6564C215.019 24.465 215.346 24.0983 215.46 23.5939C215.826 21.9592 213.675 19.026 212.173 17.2222C213.68 17.6344 215.281 17.8511 216.934 17.8501C217.921 17.8501 218.926 17.7721 219.937 17.6222C220.827 18.1833 225.494 21.0314 228.418 21.0314C229.209 21.0314 229.836 20.8238 230.281 20.4146C230.796 19.9416 230.744 19.4818 230.667 19.2499C230.251 17.9858 226.381 17.2698 223.161 16.8879C225.047 16.3045 226.844 15.4923 228.553 14.5554C228.575 14.5452 228.595 14.5361 228.615 14.523C231.672 12.8396 234.44 10.7461 236.88 8.76599L237.441 8.30918C237.863 7.96482 238.289 7.61742 238.722 7.27508C239.313 7.37434 241.088 7.6468 242.77 7.6468C245.175 7.6468 246.404 7.05126 246.421 5.87637C246.426 5.54011 246.317 5.24536 246.106 5.02355C245.811 4.71463 245.346 4.56473 244.681 4.56473C243.91 4.56473 242.915 4.77337 241.944 5.04379C242.273 4.85439 242.6 4.65993 242.94 4.49787C245.356 3.34223 247.855 3.14473 249.798 3.94487C252.02 4.86251 253.476 7.33281 253.047 9.44964C252.821 10.5607 251.932 11.5807 250.782 12.0476C249.793 12.4497 248.802 12.3727 248.065 11.8379C247.843 11.6769 247.536 11.7326 247.38 11.9605C247.224 12.1894 247.277 12.5054 247.5 12.6664C248.512 13.4017 249.839 13.5182 251.142 12.9885C252.614 12.3899 253.712 11.1127 254.008 9.65627C254.039 9.5003 254.038 9.3423 254.054 9.18531C254.982 11.5057 256.576 13.6195 258.711 15.1124C259.5 15.6634 260.359 16.1232 261.263 16.5091C261.5 18.393 262.491 24.7688 265.049 24.7698C265.245 24.7698 265.445 24.7313 265.643 24.6564C266.146 24.465 266.472 24.0983 266.586 23.5939C266.952 21.9592 264.801 19.026 263.298 17.2222C264.805 17.6344 266.406 17.8511 268.059 17.8501C269.047 17.8501 270.052 17.7721 271.062 17.6222C271.952 18.1833 276.62 21.0314 279.543 21.0314C280.334 21.0314 280.962 20.8238 281.407 20.4146C281.921 19.9416 281.869 19.4818 281.793 19.2499C281.376 17.9858 277.507 17.2698 274.287 16.8879C276.173 16.3045 277.969 15.4922 279.679 14.5564C279.7 14.5462 279.721 14.5371 279.742 14.524C282.799 12.8406 285.567 10.7471 288.006 8.76698L288.568 8.3102C288.99 7.96584 289.417 7.61844 289.849 7.2761C290.44 7.37536 292.215 7.64782 293.897 7.64782C296.302 7.64782 297.531 7.05225 297.549 5.87736C297.553 5.5411 297.444 5.24638 297.233 5.02457C296.939 4.71565 296.473 4.56575 295.809 4.56575C295.038 4.56575 294.042 4.77439 293.071 5.04481C293.4 4.85541 293.727 4.66095 294.067 4.49889C296.484 3.34426 298.984 3.14575 300.925 3.94589C303.147 4.86353 304.604 7.33383 304.174 9.45066C303.949 10.5617 303.06 11.5817 301.909 12.0486C300.919 12.4507 299.93 12.3737 299.192 11.8389C298.97 11.6779 298.664 11.7336 298.507 11.9615C298.351 12.1904 298.404 12.5064 298.627 12.6674C299.64 13.4028 300.967 13.5192 302.27 12.9895C303.741 12.3909 304.84 11.1137 305.135 9.65726C305.167 9.50129 305.166 9.34329 305.181 9.1863C306.11 11.5067 307.703 13.6205 309.839 15.1134C310.628 15.6644 311.486 16.1243 312.39 16.5101C312.628 18.394 313.619 24.7698 316.176 24.7709C316.372 24.7709 316.573 24.7324 316.77 24.6574C317.273 24.466 317.599 24.0993 317.713 23.5949C318.08 21.9602 315.928 19.027 314.425 17.2232C315.932 17.6354 317.533 17.8522 319.187 17.8511C320.174 17.8511 321.179 17.7732 322.19 17.6233C323.08 18.1844 327.747 21.0325 330.67 21.0325C331.461 21.0325 332.089 20.8248 332.534 20.4156C333.049 19.9426 332.997 19.4828 332.92 19.2509C332.503 17.9869 328.634 17.2708 325.414 16.8889C327.3 16.3055 329.097 15.4932 330.806 14.5564C330.828 14.5462 330.847 14.5371 330.867 14.525C333.925 12.8416 336.693 10.7481 339.132 8.768L339.694 8.31122C340.117 7.96686 340.543 7.61946 340.975 7.27712C341.567 7.37638 343.342 7.64884 345.023 7.64884C347.428 7.64884 348.657 7.05327 348.676 5.87838C348.681 5.54212 348.572 5.24737 348.361 5.02556C348.066 4.71664 347.6 4.56677 346.936 4.56677C346.165 4.56677 345.169 4.77541 344.198 5.04583C344.527 4.85643 344.854 4.66197 345.194 4.49991C347.611 3.34528 350.111 3.14677 352.052 3.94691C354.273 4.86455 355.731 7.33485 355.302 9.45168C355.076 10.5628 354.187 11.5827 353.037 12.0496C352.047 12.4517 351.057 12.3747 350.319 11.84C350.097 11.6789 349.791 11.7346 349.635 11.9625C349.478 12.1914 349.531 12.5074 349.754 12.6685C350.767 13.4038 352.094 13.5202 353.397 12.9905C354.869 12.3919 355.967 11.1147 356.263 9.65828C356.294 9.50231 356.293 9.34431 356.309 9.18732C357.237 11.5077 358.83 13.6215 360.966 15.1144C361.755 15.6654 362.613 16.1253 363.517 16.5112C363.755 18.395 364.746 24.7708 367.303 24.7718C367.5 24.7718 367.7 24.7334 367.897 24.6584C368.4 24.467 368.727 24.1004 368.841 23.596C369.207 21.9612 367.056 19.028 365.553 17.2242C367.06 17.6364 368.661 17.8531 370.314 17.8521C371.301 17.8521 372.306 17.7742 373.317 17.6243C374.207 18.1854 378.874 21.0335 381.798 21.0335C382.589 21.0335 383.216 20.8258 383.661 20.4167C384.176 19.9437 384.124 19.4838 384.047 19.2519C383.631 17.9879 379.761 17.2718 376.541 16.89C378.427 16.3066 380.224 15.4943 381.933 14.5574C381.955 14.5473 381.975 14.5381 381.994 14.526C385.052 12.8426 387.821 10.7491 390.26 8.76902L390.822 8.31224C391.244 7.96788 391.67 7.62045 392.103 7.27811C392.694 7.37737 394.469 7.64982 396.151 7.64982C398.556 7.64982 399.785 7.05429 399.803 5.8794C399.808 5.54314 399.699 5.24839 399.488 5.02658C399.193 4.71766 398.728 4.56776 398.063 4.56776C397.292 4.56776 396.296 4.77643 395.326 5.04685C395.655 4.85745 395.981 4.66299 396.322 4.50093C398.737 3.3463 401.237 3.14574 403.18 3.9479C405.402 4.86553 406.859 7.33483 406.429 9.45267C406.203 10.5638 405.314 11.5837 404.164 12.0506C403.175 12.4527 402.185 12.3757 401.447 11.8409C401.225 11.6799 400.918 11.7356 400.762 11.9635C400.606 12.1924 400.66 12.5084 400.882 12.6695C401.895 13.4048 403.222 13.5213 404.524 12.9915C405.996 12.393 407.094 11.1158 407.39 9.6593C407.922 7.03909 406.233 4.11707 403.544 3.00801C400.542 1.7683 397.471 2.83479 395.908 3.58024C393.811 4.58193 391.981 6.07486 390.212 7.51815L389.653 7.97394C387.696 9.56207 385.522 11.2221 383.165 12.6766C384.425 10.4594 386.053 7.1505 385.379 5.87433C385.261 5.65049 384.966 5.27574 384.255 5.27574H384.252C381.353 5.37297 381.227 12.0527 381.243 13.7826C379.648 14.6415 377.984 15.3889 376.244 15.9257C370.873 17.5838 365.367 16.968 361.518 14.2758C361.135 14.0084 360.777 13.7086 360.432 13.3977C362.863 13.346 367.844 13.0189 368.91 11.2373C369.114 10.897 369.283 10.3389 368.931 9.61677C368.673 9.08807 368.122 8.45705 366.963 8.45705C364.39 8.45705 360.272 11.688 359.424 12.3747C356.588 9.10731 355.539 4.35811 357.124 0.717969C357.235 0.462734 357.124 0.162923 356.877 0.0484724C356.63 -0.0659783 356.338 0.0484796 356.227 0.302702C355.507 1.95768 355.27 3.78686 355.442 5.61503C354.748 4.48774 353.702 3.5367 352.417 3.00597C349.414 1.76626 346.343 2.83278 344.781 3.57823C342.684 4.57992 340.853 6.07285 339.084 7.51614L338.525 7.97193C336.568 9.56006 334.394 11.2201 332.038 12.6745C333.297 10.4574 334.926 7.14846 334.252 5.87229C334.134 5.64845 333.838 5.27373 333.127 5.27373H333.124C330.225 5.37096 330.1 12.0506 330.115 13.7805C328.521 14.6394 326.857 15.3869 325.116 15.9237C319.746 17.5817 314.24 16.9659 310.391 14.2738C310.008 14.0064 309.65 13.7066 309.304 13.3957C311.736 13.344 316.717 13.0169 317.783 11.2353C317.986 10.895 318.155 10.3369 317.804 9.61473C317.545 9.08603 316.995 8.45504 315.836 8.45504C313.263 8.45504 309.144 11.686 308.296 12.3727C305.461 9.10527 304.411 4.3561 305.997 0.71596C306.108 0.460725 305.998 0.160914 305.75 0.0464633C305.504 -0.0679874 305.212 0.0464705 305.101 0.300693C304.381 1.95466 304.144 3.78383 304.316 5.612C303.621 4.48471 302.575 3.53466 301.29 3.00393C298.287 1.76422 295.217 2.83074 293.655 3.57619C291.557 4.57788 289.727 6.07081 287.958 7.5141L287.399 7.96989C285.442 9.55802 283.269 11.217 280.912 12.6715C282.172 10.4544 283.8 7.14544 283.126 5.86926C283.008 5.64542 282.712 5.27067 282.001 5.27067H281.998C279.099 5.3679 278.973 12.0476 278.989 13.7775C277.395 14.6364 275.731 15.3839 273.99 15.9217C268.618 17.5797 263.112 16.9639 259.264 14.2718C258.881 14.0044 258.524 13.7046 258.178 13.3936C260.609 13.342 265.591 13.0148 266.657 11.2332C266.86 10.8929 267.029 10.3349 266.677 9.61272C266.419 9.08402 265.869 8.453 264.71 8.453C262.137 8.453 258.018 11.684 257.17 12.3707C254.335 9.10326 253.285 4.35406 254.87 0.71392C254.981 0.458685 254.871 0.158874 254.624 0.0444233C254.376 -0.0700274 254.086 0.0444304 253.974 0.298653C253.254 1.95262 253.018 3.78182 253.19 5.60999C252.495 4.4827 251.449 3.53265 250.164 3.00192C247.164 1.7612 244.092 2.82974 242.528 3.57418C240.43 4.57587 238.6 6.0688 236.831 7.51209L236.272 7.96785C234.315 9.55598 232.142 11.215 229.785 12.6695C231.045 10.4524 232.672 7.14343 231.998 5.86725C231.88 5.64341 231.585 5.26866 230.874 5.26866H230.871C227.972 5.36589 227.846 12.0445 227.862 13.7755C226.267 14.6333 224.603 15.3808 222.863 15.9186C217.49 17.5797 211.984 16.9609 208.136 14.2697C207.753 14.0024 207.395 13.7025 207.05 13.3916C209.481 13.34 214.462 13.0128 215.528 11.2312C215.732 10.8909 215.901 10.3328 215.549 9.61068C215.291 9.08198 214.74 8.45099 213.581 8.45099C211.009 8.45099 206.89 11.6819 206.042 12.3686C203.207 9.10122 202.157 4.35205 203.742 0.711911C203.855 0.46174 203.744 0.161934 203.496 0.0474833ZM214.178 23.7063C214.088 23.7398 214.005 23.757 213.923 23.757C212.792 23.757 211.821 20.6334 211.319 17.7549C212.963 19.7249 214.743 22.2945 214.504 23.365C214.476 23.4825 214.417 23.6152 214.178 23.7063ZM245.406 5.73354C245.418 5.74569 245.442 5.77 245.44 5.86014C245.433 6.33719 244.409 6.63396 242.771 6.63396C242.051 6.63396 241.299 6.57926 240.638 6.5114C241.925 6.06778 243.594 5.57757 244.682 5.57757C245.23 5.57757 245.381 5.70822 245.406 5.73354ZM265.305 23.7063C265.216 23.7398 265.132 23.757 265.05 23.757C263.92 23.757 262.948 20.6344 262.446 17.7549C264.091 19.7259 265.871 22.2955 265.631 23.365C265.604 23.4825 265.545 23.6152 265.305 23.7063ZM296.534 5.73354C296.546 5.74569 296.569 5.77 296.567 5.86014C296.56 6.33719 295.537 6.63396 293.898 6.63396C293.178 6.63396 292.426 6.57926 291.765 6.5114C293.052 6.06778 294.721 5.57757 295.81 5.57757C296.357 5.57757 296.508 5.70822 296.534 5.73354ZM316.432 23.7063C316.343 23.7398 316.259 23.757 316.178 23.757C315.047 23.757 314.076 20.6344 313.574 17.7549C315.218 19.7259 316.998 22.2955 316.758 23.365C316.731 23.4825 316.672 23.6152 316.432 23.7063ZM347.66 5.73354C347.672 5.74569 347.695 5.77 347.694 5.86014C347.687 6.33719 346.663 6.63396 345.023 6.63396C344.304 6.63396 343.551 6.57926 342.891 6.5114C344.178 6.06778 345.847 5.57757 346.936 5.57757C347.484 5.57757 347.636 5.70822 347.66 5.73354ZM367.56 23.7063C367.47 23.7398 367.387 23.757 367.305 23.757C366.174 23.757 365.203 20.6344 364.701 17.7549C366.345 19.7259 368.125 22.2955 367.886 23.365C367.858 23.4825 367.798 23.6152 367.56 23.7063ZM398.787 5.73354C398.799 5.74569 398.823 5.77 398.821 5.86014C398.814 6.33719 397.79 6.63396 396.151 6.63396C395.432 6.63396 394.678 6.57926 394.018 6.5114C395.305 6.06778 396.974 5.57757 398.063 5.57757C398.612 5.57757 398.763 5.70822 398.787 5.73354ZM384.314 6.28453C384.481 6.28453 384.506 6.33315 384.518 6.35543C384.867 7.0158 383.722 9.67448 382.259 12.2592C382.393 9.63802 382.938 6.3301 384.314 6.28453ZM383.118 19.5274C383.118 19.5274 383.101 19.573 383.01 19.658C382.75 19.8971 382.342 20.0176 381.8 20.0176C380.032 20.0176 377.414 18.7779 375.634 17.8066C379.64 18.2451 382.87 18.9774 383.118 19.5274ZM366.964 9.46788C367.678 9.46788 367.928 9.81123 368.054 10.0695C368.213 10.3956 368.149 10.579 368.075 10.7025C367.499 11.6667 364.329 12.2309 361.079 12.3616C362.768 11.1218 365.376 9.46788 366.964 9.46788ZM333.186 6.28453C333.353 6.28453 333.379 6.33315 333.391 6.35543C333.74 7.0158 332.596 9.67448 331.133 12.2592C331.266 9.63802 331.811 6.3301 333.186 6.28453ZM331.991 19.5274C331.991 19.5274 331.974 19.573 331.883 19.658C331.622 19.8971 331.215 20.0176 330.672 20.0176C328.905 20.0176 326.287 18.7779 324.507 17.8066C328.513 18.2451 331.743 18.9774 331.991 19.5274ZM315.837 9.46788C316.551 9.46788 316.801 9.81123 316.926 10.0695C317.086 10.3956 317.022 10.579 316.948 10.7025C316.371 11.6667 313.201 12.2309 309.952 12.3616C311.64 11.1218 314.248 9.46788 315.837 9.46788ZM282.059 6.28453C282.227 6.28453 282.251 6.33315 282.264 6.35543C282.613 7.0158 281.468 9.6755 280.005 12.2603C280.137 9.63904 280.683 6.33112 282.059 6.28453ZM280.863 19.5274C280.863 19.5274 280.847 19.573 280.755 19.658C280.495 19.8971 280.087 20.0176 279.545 20.0176C277.778 20.0176 275.16 18.7779 273.38 17.8066C277.386 18.2451 280.616 18.9774 280.863 19.5274ZM264.711 9.46788C265.425 9.46788 265.674 9.81123 265.8 10.0695C265.959 10.3956 265.895 10.579 265.822 10.7025C265.245 11.6667 262.075 12.2309 258.825 12.3616C260.513 11.1218 263.121 9.46788 264.711 9.46788ZM230.932 6.28453C231.099 6.28453 231.124 6.33315 231.136 6.35543C231.485 7.0158 230.34 9.67448 228.877 12.2592C229.012 9.63802 229.557 6.3301 230.932 6.28453ZM229.737 19.5274C229.737 19.5274 229.72 19.573 229.629 19.658C229.369 19.8971 228.961 20.0176 228.419 20.0176C226.651 20.0176 224.033 18.7779 222.253 17.8066C226.258 18.2451 229.488 18.9774 229.737 19.5274ZM213.583 9.46788C214.297 9.46788 214.547 9.81123 214.673 10.0695C214.832 10.3956 214.768 10.579 214.694 10.7025C214.118 11.6667 210.948 12.2309 207.698 12.3616C209.386 11.1218 211.994 9.46788 213.583 9.46788Z" fill="#030F1B"/>
<path d="M203.984 0.0607848C204.23 -0.055862 204.521 0.0559844 204.635 0.309201C206.831 5.23353 204.808 11.7573 200.028 15.1615C199.244 15.7195 198.39 16.1869 197.49 16.5818C197.269 18.4688 196.334 24.8521 193.778 24.8748C193.582 24.8766 193.381 24.8399 193.183 24.7667C192.678 24.5797 192.349 24.216 192.23 23.7126C191.849 22.0812 193.975 19.1291 195.461 17.3119C193.957 17.7375 192.358 17.9685 190.705 17.9822C189.718 17.991 188.712 17.9219 187.7 17.781C186.815 18.35 182.173 21.2395 179.25 21.2655C178.459 21.2725 177.83 21.0704 177.381 20.6652C176.862 20.1968 176.91 19.7365 176.985 19.5039C177.39 18.2363 181.253 17.4858 184.469 17.0754C182.578 16.5088 180.774 15.7125 179.057 14.7908C179.035 14.7809 179.015 14.772 178.995 14.759C175.923 13.1029 173.136 11.034 170.679 9.07571L170.114 8.62391C169.689 8.28331 169.259 7.93972 168.824 7.60123C168.234 7.70574 166.461 7.99397 164.779 8.00892C162.375 8.0303 161.141 7.44571 161.112 6.27103C161.104 5.93482 161.211 5.63912 161.42 5.41544C161.712 5.10391 162.176 4.94988 162.84 4.94397C163.612 4.93712 164.608 5.1369 165.582 5.39868C165.252 5.21221 164.923 5.02066 164.581 4.86164C162.155 3.72752 159.654 3.55225 157.719 4.36962C155.505 5.30697 154.07 7.79013 154.518 9.90306C154.754 11.0121 155.652 12.0241 156.807 12.4808C157.8 12.874 158.789 12.7883 159.522 12.2469C159.743 12.0839 160.05 12.1369 160.208 12.3634C160.366 12.5909 160.316 12.9074 160.094 13.0704C159.089 13.8147 157.763 13.9429 156.455 13.4248C154.978 12.8394 153.868 11.572 153.56 10.1182C153.527 9.96253 153.526 9.80453 153.509 9.64769C152.602 11.9763 151.027 14.1041 148.905 15.616C148.121 16.1739 147.266 16.6414 146.366 17.0353C146.145 18.9212 145.211 25.3056 142.654 25.3293C142.457 25.3311 142.257 25.2944 142.058 25.2212C141.554 25.0342 141.224 24.6705 141.106 24.1671C140.725 22.5357 142.85 19.5836 144.337 17.7664C142.834 18.192 141.235 18.423 139.582 18.4367C138.594 18.4454 137.589 18.3764 136.577 18.2355C135.692 18.8045 131.05 21.694 128.127 21.7199C127.336 21.727 126.706 21.5249 126.258 21.1197C125.739 20.6513 125.787 20.191 125.861 19.9584C126.267 18.6907 130.129 17.9403 133.346 17.5299C131.455 16.9632 129.651 16.167 127.933 15.2463C127.912 15.2364 127.891 15.2275 127.87 15.2145C124.798 13.5584 122.012 11.4895 119.555 9.5312L118.989 9.07943C118.564 8.73884 118.134 8.39524 117.699 8.05676C117.108 8.16127 115.336 8.44949 113.654 8.46445C111.249 8.48582 110.015 7.90121 109.987 6.72652C109.979 6.39031 110.086 6.09464 110.295 5.87096C110.587 5.55944 111.051 5.4054 111.715 5.3995C112.486 5.39264 113.484 5.59242 114.457 5.8542C114.126 5.66774 113.797 5.47619 113.456 5.31716C111.029 4.18405 108.528 4.00778 106.594 4.82515C104.38 5.76249 102.945 8.24566 103.393 10.3586C103.629 11.4676 104.527 12.4796 105.681 12.9363C106.675 13.3296 107.664 13.2438 108.397 12.7025C108.617 12.5395 108.924 12.5924 109.082 12.8189C109.241 13.0464 109.19 13.3629 108.969 13.5259C107.963 14.2702 106.637 14.3985 105.329 13.8804C103.853 13.2949 102.743 12.0275 102.434 10.5737C102.402 10.418 102.401 10.26 102.384 10.1032C101.476 12.4318 99.9018 14.5596 97.7795 16.0715C96.9956 16.6295 96.1412 17.0969 95.2409 17.4908C95.0199 19.3767 94.0854 25.7611 91.5285 25.7849C91.332 25.7866 91.1313 25.7499 90.9332 25.6767C90.4285 25.4898 90.0991 25.126 89.9807 24.6227C89.5998 22.9913 91.725 20.0391 93.2119 18.2219C91.7087 18.6475 90.1094 18.8785 88.4562 18.8922C87.469 18.901 86.4634 18.8319 85.4512 18.691C84.5663 19.26 79.9246 22.1495 77.0013 22.1755C76.2105 22.1825 75.581 21.9804 75.1323 21.5752C74.6134 21.1068 74.6614 20.6466 74.736 20.4139C75.1412 19.1463 79.0042 18.3958 82.2208 17.9854C80.3296 17.4188 78.5257 16.6225 76.8081 15.7008C76.7864 15.6909 76.7667 15.6819 76.747 15.67C73.6741 14.0139 70.8873 11.945 68.4306 9.98671L67.8647 9.53495C67.4392 9.19435 67.0098 8.85075 66.5746 8.51227C65.9841 8.61678 64.2115 8.90501 62.5298 8.91996C60.1251 8.94134 58.8909 8.35672 58.8618 7.18204C58.8539 6.84584 58.9603 6.55013 59.1695 6.32645C59.4615 6.01493 59.9258 5.86092 60.5898 5.85502C61.3609 5.84817 62.3588 6.04794 63.3318 6.30973C63.001 6.12326 62.6731 5.9317 62.3308 5.77268C59.9041 4.63958 57.4024 4.4633 55.4684 5.28067C53.2556 6.21801 51.8198 8.70118 52.2679 10.8141C52.5037 11.9231 53.4017 12.9351 54.5562 13.3918C55.5489 13.7851 56.5384 13.6993 57.2714 13.158C57.492 12.995 57.7989 13.0479 57.9572 13.2744C58.1154 13.5019 58.0651 13.8184 57.8436 13.9814C56.8374 14.7257 55.5113 14.854 54.2041 14.3359C52.7272 13.7504 51.6176 12.483 51.309 11.0292C51.2762 10.8735 51.2758 10.7155 51.2587 10.5587C50.351 12.8873 48.7765 15.0151 46.6542 16.527C45.8703 17.085 45.0159 17.5524 44.1156 17.9463C43.8946 19.8323 42.9601 26.2166 40.4032 26.2403C40.2067 26.2421 40.006 26.2054 39.8079 26.1322C39.3032 25.9453 38.9739 25.5815 38.8554 25.0782C38.4745 23.4468 40.5997 20.4946 42.0866 18.6774C40.5834 19.103 38.9841 19.334 37.3309 19.3477C36.3437 19.3565 35.3381 19.2874 34.326 19.1465C33.441 19.7155 28.7993 22.605 25.876 22.631C25.0852 22.638 24.4557 22.436 24.0071 22.0307C23.4881 21.5623 23.5361 21.1021 23.6106 20.8695C24.0159 19.6018 27.8789 18.8513 31.0955 18.4409C29.2043 17.8743 27.4004 17.078 25.6829 16.1564C25.6612 16.1464 25.6414 16.1375 25.6217 16.1255C22.5488 14.4694 19.762 12.4006 17.3053 10.4422L16.7394 9.99047C16.3139 9.64987 15.8845 9.30625 15.4493 8.96776C14.8588 9.07228 13.0862 9.3605 11.4045 9.37545C8.99979 9.39683 7.76561 8.81224 7.7365 7.63757C7.7286 7.30136 7.83503 7.00566 8.04426 6.78198C8.3362 6.47045 8.80047 6.31642 9.46451 6.31051C10.2356 6.30366 11.2336 6.50346 12.2065 6.76525C11.8757 6.57878 11.5479 6.38722 11.2056 6.22821C8.7798 5.09509 6.27805 4.91676 4.34315 5.73616C2.12932 6.67351 0.693513 9.15567 1.14259 11.2696C1.3784 12.3786 2.27646 13.3906 3.43089 13.8473C4.42365 14.2406 5.41215 14.1548 6.14609 13.6135C6.36666 13.4505 6.67366 13.5035 6.83187 13.73C6.99009 13.9575 6.93887 14.274 6.7183 14.437C5.71207 15.1813 4.386 15.3095 3.07875 14.7914C1.60192 14.2059 0.492355 12.9385 0.183732 11.4848C-0.371972 8.86939 1.29163 5.93246 3.97036 4.79955C6.96128 3.5332 10.0414 4.57234 11.6109 5.30387C13.7171 6.28688 15.5604 7.76348 17.3424 9.19099L17.9053 9.64179C19.8762 11.2125 22.0648 12.8531 24.4343 14.2865C23.1553 12.0807 21.4972 8.78639 22.1597 7.50427C22.2756 7.2794 22.5679 6.90203 23.2791 6.89571L23.2821 6.89568C26.1817 6.96714 26.3669 13.6454 26.3665 15.3754C27.9685 16.2201 29.6391 16.9528 31.3846 17.4741C36.7696 19.0843 42.27 18.4196 46.0947 15.6933C46.4755 15.4225 46.8303 15.1196 47.1733 14.8056C44.7417 14.7755 39.7575 14.4927 38.6758 12.7206C38.4694 12.3822 38.2955 11.8256 38.6408 11.1003C38.8944 10.5694 39.4389 9.93349 40.5981 9.92318C43.1707 9.90031 47.3183 13.0945 48.1721 13.7737C50.979 10.4812 51.9859 5.72284 50.3681 2.09694C50.2548 1.8427 50.3631 1.54191 50.6096 1.42527C50.8552 1.30863 51.148 1.42049 51.2612 1.67371C51.996 3.32222 52.249 5.14923 52.0933 6.97886C52.7778 5.84544 53.8155 4.88513 55.0956 4.343C58.0875 3.07664 61.1677 4.11582 62.7362 4.84736C64.8424 5.83037 66.6857 7.30696 68.4676 8.73447L69.0306 9.18528C71.0015 10.7559 73.1901 12.3966 75.5596 13.83C74.2806 11.6242 72.6225 8.32985 73.285 7.04773C73.4009 6.82285 73.6933 6.44552 74.4044 6.4392L74.4074 6.43917C77.307 6.51063 77.4921 13.1889 77.4918 14.9189C79.0937 15.7636 80.7644 16.4962 82.5099 17.0175C87.8949 18.6277 93.3952 17.963 97.22 15.2368C97.6007 14.966 97.9556 14.663 98.2986 14.349C95.8669 14.319 90.8828 14.0361 89.8011 12.2641C89.5948 11.9256 89.4208 11.3691 89.7661 10.6438C90.0197 10.1128 90.5642 9.47697 91.7233 9.46667C94.296 9.4438 98.4435 12.638 99.2974 13.3171C102.103 10.0246 103.111 5.26633 101.493 1.64043C101.38 1.38619 101.487 1.08541 101.734 0.968763C101.98 0.852125 102.272 0.963985 102.386 1.21721C103.12 2.86471 103.373 4.6917 103.218 6.52133C103.902 5.38791 104.94 4.4286 106.22 3.88647C109.212 2.62011 112.291 3.6593 113.861 4.39082C115.967 5.37383 117.81 6.85043 119.592 8.27794L120.155 8.72874C122.126 10.2994 124.313 11.9391 126.683 13.3725C125.404 11.1667 123.747 7.87232 124.409 6.59021C124.525 6.36533 124.818 5.98796 125.529 5.98164L125.532 5.98161C128.431 6.05307 128.616 12.7314 128.616 14.4614C130.218 15.306 131.889 16.0387 133.634 16.561C139.02 18.1712 144.521 17.5065 148.344 14.7802C148.725 14.5095 149.08 14.2065 149.423 13.8925C146.991 13.8625 142.007 13.5796 140.925 11.8076C140.719 11.4691 140.545 10.9126 140.89 10.1873C141.144 9.65632 141.688 9.02044 142.848 9.01014C145.42 8.98726 149.568 12.1815 150.422 12.8606C153.228 9.56814 154.235 4.80979 152.618 1.18389C152.504 0.929652 152.612 0.628875 152.858 0.512229C153.105 0.395582 153.396 0.507459 153.51 0.760676C154.245 2.40817 154.498 4.2352 154.342 6.06483C155.026 4.93141 156.064 3.97209 157.344 3.42996C160.333 2.16262 163.414 3.20381 164.985 3.93432C167.092 4.91732 168.935 6.39392 170.717 7.82143L171.28 8.2722C173.251 9.84287 175.439 11.4825 177.808 12.916C176.529 10.7102 174.872 7.41581 175.535 6.13369C175.65 5.90882 175.943 5.53145 176.654 5.52513L176.657 5.5251C179.557 5.59656 179.742 12.2738 179.741 14.0048C181.343 14.8485 183.014 15.5811 184.759 16.1035C190.146 17.7167 195.647 17.0489 199.471 14.3237C199.851 14.0529 200.206 13.75 200.549 13.436C198.118 13.4059 193.133 13.1231 192.052 11.351C191.845 11.0126 191.671 10.456 192.017 9.73075C192.27 9.19977 192.815 8.56392 193.974 8.55361C196.547 8.53074 200.694 11.7249 201.548 12.4041C204.354 9.11158 205.362 4.35327 203.744 0.727369C203.629 0.478212 203.737 0.177432 203.984 0.0607848ZM193.513 23.8137C193.603 23.8463 193.687 23.8628 193.768 23.862C194.899 23.852 195.842 20.7199 196.319 17.8371C194.692 19.8216 192.935 22.4069 193.184 23.4753C193.213 23.5925 193.273 23.7246 193.513 23.8137ZM162.126 6.11918C162.114 6.13144 162.091 6.15595 162.094 6.24607C162.105 6.72304 163.131 7.0107 164.769 6.99613C165.489 6.98973 166.24 6.92836 166.901 6.85462C165.61 6.42246 163.937 5.9471 162.848 5.95678C162.301 5.96164 162.151 6.09363 162.126 6.11918ZM142.388 24.2682C142.478 24.3008 142.561 24.3173 142.643 24.3166C143.773 24.3065 144.717 21.1754 145.194 18.2916C143.567 20.2771 141.81 22.8624 142.059 23.9298C142.087 24.047 142.147 24.1791 142.388 24.2682ZM111.001 6.57368C110.989 6.58594 110.966 6.61046 110.968 6.70058C110.979 7.17755 112.006 7.4652 113.644 7.45064C114.364 7.44424 115.116 7.38285 115.776 7.30913C114.485 6.87696 112.812 6.40161 111.723 6.41128C111.176 6.41615 111.026 6.54813 111.001 6.57368ZM91.2627 24.7227C91.3523 24.7553 91.436 24.7718 91.5175 24.7711C92.6482 24.761 93.5919 21.6299 94.0683 18.7461C92.4414 20.7316 90.6843 23.3169 90.9335 24.3843C90.962 24.5015 91.0222 24.6336 91.2627 24.7227ZM59.8762 7.02818C59.8646 7.04043 59.8412 7.06495 59.844 7.15507C59.8551 7.63204 60.8813 7.9197 62.5207 7.90512C63.2398 7.89873 63.9927 7.83734 64.6522 7.76361C63.3615 7.33145 61.6882 6.85609 60.5988 6.86578C60.0507 6.87065 59.9006 7.00264 59.8762 7.02818ZM40.1373 25.1772C40.227 25.2098 40.3107 25.2263 40.3922 25.2256C41.5228 25.2155 42.4666 22.0844 42.943 19.2006C41.3161 21.1861 39.559 23.7714 39.8082 24.8388C39.8367 24.956 39.8978 25.0881 40.1373 25.1772ZM8.75091 7.48268C8.73923 7.49494 8.71587 7.51946 8.71864 7.60958C8.72976 8.08654 9.75598 8.3742 11.3955 8.35963C12.1145 8.35323 12.8674 8.29184 13.527 8.21812C12.2362 7.78595 10.5629 7.3106 9.47349 7.32028C8.92536 7.32515 8.77524 7.45714 8.75091 7.48268ZM23.2292 7.90498C23.0622 7.90647 23.0371 7.95531 23.0255 7.9777C22.6826 8.64114 23.8507 11.2895 25.3363 13.8612C25.1794 11.2413 24.6048 7.93833 23.2292 7.90498ZM24.5424 21.1367C24.5424 21.1367 24.5595 21.1821 24.6516 21.2664C24.914 21.5031 25.3227 21.62 25.865 21.6151C27.6322 21.5994 30.239 20.3365 32.0103 19.3494C28.0083 19.8236 24.785 20.5845 24.5424 21.1367ZM40.6061 10.934C39.8919 10.9403 39.6455 11.2859 39.522 11.5453C39.3658 11.8728 39.4313 12.0555 39.506 12.1785C40.0912 13.1375 43.2662 13.6735 46.5168 13.7752C44.8172 12.5506 42.1945 10.9199 40.6061 10.934ZM74.3545 7.45048C74.1875 7.45196 74.1624 7.50081 74.1498 7.52321C73.807 8.18665 74.975 10.835 76.4606 13.4067C76.3047 10.7868 75.7301 7.48383 74.3545 7.45048ZM75.6677 20.6822C75.6677 20.6822 75.6848 20.7276 75.7769 20.8119C76.0393 21.0486 76.4481 21.1655 76.9903 21.1606C78.7575 21.1449 81.3643 19.882 83.1356 18.8949C79.1337 19.3691 75.9103 20.13 75.6677 20.6822ZM91.7313 10.4795C91.0172 10.4858 90.7707 10.8314 90.6473 11.0908C90.4911 11.4183 90.5565 11.601 90.6313 11.7239C91.2165 12.683 94.3914 13.219 97.6421 13.3207C95.9425 12.0961 93.3197 10.4654 91.7313 10.4795ZM125.48 6.99597C125.312 6.99747 125.288 7.04631 125.275 7.0687C124.932 7.73215 126.1 10.3816 127.587 12.9532C127.431 10.3333 126.856 7.03033 125.48 6.99597ZM126.793 20.2277C126.793 20.2277 126.81 20.2731 126.902 20.3574C127.165 20.5941 127.573 20.711 128.116 20.7061C129.883 20.6904 132.49 19.4275 134.261 18.4404C130.259 18.9146 127.036 19.6755 126.793 20.2277ZM142.856 10.025C142.142 10.0313 141.895 10.3769 141.772 10.6363C141.615 10.9638 141.681 11.1465 141.756 11.2695C142.341 12.2285 145.516 12.7645 148.766 12.8662C147.068 11.6416 144.445 10.0109 142.856 10.025ZM176.605 6.54147C176.438 6.54295 176.413 6.5918 176.401 6.61419C176.059 7.27763 177.227 9.92603 178.712 12.4977C178.554 9.87777 177.98 6.57483 176.605 6.54147ZM177.917 19.7732C177.917 19.7732 177.934 19.8186 178.026 19.9029C178.289 20.1396 178.698 20.2565 179.24 20.2516C181.007 20.2359 183.614 18.973 185.385 17.9859C181.384 18.4601 178.161 19.221 177.917 19.7732ZM193.981 9.57048C193.267 9.57683 193.02 9.92238 192.897 10.1818C192.741 10.5093 192.806 10.692 192.881 10.8149C193.466 11.774 196.641 12.31 199.892 12.4117C198.193 11.1871 195.57 9.55635 193.981 9.57048Z" fill="#030F1B"/>
</svg>
