<svg width="208" height="22" viewBox="0 0 208 22" fill="none" xmlns="http://www.w3.org/2000/svg">
  <path
    d="M6.35109 15.6134C12.3876 15.6134 21.0637 11.7919 22.0156 11.3645H27.0452C24.0884 13.3345 18.3917 17.4344 18.4428 19.769C18.4507 20.1438 18.5951 20.6684 19.2366 21.0321C19.543 21.2052 19.879 21.2934 20.2356 21.2934C23.5687 21.2934 28.0718 13.1815 29.0394 11.3645H34.4659L32.0886 14.8142C31.9314 15.0431 31.9835 15.3591 32.2045 15.5202C32.291 15.584 32.3902 15.6144 32.4884 15.6144C32.6417 15.6144 32.7939 15.5404 32.8892 15.4017L35.6712 11.3645H40.5889C38.8256 12.9557 35.743 15.978 35.85 17.5843C35.8766 17.9793 36.0642 18.2974 36.3913 18.504C36.5878 18.6276 36.8029 18.6914 37.0308 18.6914C38.9994 18.6914 41.3866 13.4337 42.2481 11.3655H47.6814L45.8169 13.1744C45.6195 13.3659 45.6107 13.6869 45.7963 13.8905C45.8936 13.9958 46.0232 14.0495 46.1539 14.0495C46.2747 14.0495 46.3956 14.004 46.4908 13.9118L49.1157 11.3645H93.0787C93.5945 11.5833 96.1604 12.6316 97.9954 12.6316C99.9611 12.6316 100.173 11.3908 100.173 10.8581C100.173 10.3253 99.9611 9.0846 97.9954 9.0846C96.1604 9.0846 93.5945 10.1329 93.0787 10.3517H49.1167L46.4918 7.80538C46.2944 7.61396 45.9839 7.62308 45.7973 7.82767C45.6116 8.03125 45.6205 8.35131 45.8179 8.54375L47.6814 10.3517H42.2481C41.3875 8.28649 39.0004 3.02683 37.0308 3.02683C36.8029 3.02683 36.5878 3.09063 36.3903 3.2142C36.0632 3.42082 35.8766 3.73985 35.8491 4.13385C35.741 5.74021 38.8246 8.76152 40.5869 10.3527H35.6693L32.8873 6.31651C32.7291 6.08963 32.4236 6.03595 32.2026 6.198C31.9815 6.35905 31.9295 6.67609 32.0867 6.90397L34.4639 10.3527H29.0374C28.0855 8.563 23.5756 0.423828 20.2346 0.423828C19.878 0.423828 19.5421 0.512961 19.2356 0.686156C18.5941 1.04976 18.4497 1.57341 18.4418 1.94917C18.3908 4.28275 24.0874 8.38272 27.0443 10.3527H22.0146C21.0627 9.92425 12.3866 6.10382 6.3501 6.10382C1.44229 6.10382 0.411804 8.68961 0.411804 10.8591C0.412787 13.0276 1.44327 15.6134 6.35109 15.6134ZM19.4252 1.97044C19.4281 1.85194 19.4645 1.71216 19.711 1.57239C19.8731 1.48022 20.045 1.43466 20.2366 1.43466C22.2995 1.43466 25.4971 6.16865 27.3419 9.33985C23.7524 6.91511 19.3927 3.47146 19.4252 1.97044ZM20.2356 20.2805C20.044 20.2805 19.8721 20.2359 19.71 20.1438C19.4635 20.004 19.4271 19.8642 19.4242 19.7457C19.3918 18.2447 23.7514 14.8001 27.3409 12.3753C25.498 15.5465 22.2995 20.2805 20.2356 20.2805ZM37.0328 17.6775C36.9866 17.6775 36.9473 17.6654 36.9061 17.639C36.851 17.6056 36.8363 17.5793 36.8324 17.5144C36.7754 16.6697 38.632 14.5813 40.5339 12.7794C39.2725 15.4007 37.8049 17.6775 37.0328 17.6775ZM97.9964 10.0974C99.1919 10.0974 99.1919 10.611 99.1919 10.8581C99.1919 11.1052 99.1919 11.6187 97.9964 11.6187C96.9433 11.6187 95.5523 11.2055 94.5719 10.8581C95.5523 10.5107 96.9423 10.0974 97.9964 10.0974ZM36.8314 4.20274C36.8353 4.13792 36.851 4.11157 36.9051 4.07815C36.9463 4.05181 36.9856 4.03967 37.0318 4.03967C37.8039 4.03967 39.2716 6.31652 40.5319 8.93673C38.632 7.13489 36.7754 5.04745 36.8314 4.20274ZM6.35109 7.11564C11.1754 7.11564 18.0204 9.76422 20.6393 10.8581C18.0194 11.9519 11.1754 14.6005 6.35109 14.6005C3.01601 14.6005 1.39513 13.376 1.39513 10.8581C1.39513 8.33916 3.01699 7.11564 6.35109 7.11564Z"
    fill="#FDEEDC" />
  <path
    d="M201.477 6.10285C195.44 6.10285 186.764 9.92429 185.812 10.3517H180.783C183.74 8.38174 189.436 4.28279 189.385 1.9482C189.377 1.57243 189.233 1.04879 188.591 0.685179C188.284 0.511984 187.948 0.422852 187.591 0.422852C184.258 0.422852 179.755 8.53366 178.789 10.3517H173.362L175.739 6.903C175.897 6.6741 175.845 6.3581 175.624 6.19706C175.401 6.03399 175.096 6.08768 174.939 6.31556L172.157 10.3517H167.239C169.002 8.76155 172.085 5.73926 171.977 4.1329C171.951 3.73789 171.764 3.41984 171.437 3.21322C171.239 3.08966 171.024 3.02585 170.796 3.02585C168.828 3.02585 166.441 8.28349 165.579 10.3507H160.146L162.009 8.54277C162.207 8.35033 162.215 8.03027 162.03 7.82669C161.843 7.62311 161.533 7.61301 161.335 7.80444L158.71 10.3507H114.747C114.232 10.1319 111.666 9.08365 109.831 9.08365C107.865 9.08365 107.653 10.3244 107.653 10.8571C107.653 11.3899 107.865 12.6306 109.831 12.6306C111.666 12.6306 114.232 11.5823 114.747 11.3635H158.71L161.335 13.9108C161.431 14.003 161.551 14.0486 161.672 14.0486C161.803 14.0486 161.933 13.9949 162.03 13.8896C162.215 13.686 162.207 13.3649 162.009 13.1735L160.145 11.3645H165.578C166.441 13.4328 168.827 18.6904 170.796 18.6904C171.024 18.6904 171.239 18.6266 171.437 18.503C171.764 18.2964 171.951 17.9774 171.977 17.5834C172.085 15.977 169.001 12.9547 167.239 11.3635H172.157L174.939 15.4007C175.035 15.5395 175.186 15.6134 175.34 15.6134C175.438 15.6134 175.537 15.583 175.624 15.5192C175.845 15.3582 175.897 15.0411 175.739 14.8133L173.362 11.3635H178.789C179.755 13.1806 184.259 21.2924 187.592 21.2924C187.949 21.2924 188.285 21.2043 188.591 21.0311C189.232 20.6675 189.376 20.1428 189.385 19.7681C189.436 17.4335 183.74 13.3335 180.783 11.3635H185.812C186.764 11.792 195.44 15.6124 201.477 15.6124C206.385 15.6124 207.415 13.0266 207.415 10.8571C207.415 8.68761 206.385 6.10285 201.477 6.10285ZM187.591 1.43569C187.783 1.43569 187.955 1.48128 188.118 1.57345C188.365 1.71322 188.4 1.85199 188.403 1.9715C188.435 3.47253 184.076 6.91618 180.486 9.34091C182.33 6.17073 185.528 1.43569 187.591 1.43569ZM170.795 4.03869C170.841 4.03869 170.881 4.05084 170.923 4.07717C170.977 4.1106 170.993 4.13695 170.997 4.20177C171.054 5.04647 169.196 7.13391 167.295 8.93575C168.556 6.31655 170.023 4.03869 170.795 4.03869ZM109.832 11.6188C108.636 11.6188 108.636 11.1053 108.636 10.8581C108.636 10.611 108.636 10.0975 109.832 10.0975C110.885 10.0975 112.276 10.5107 113.257 10.8581C112.276 11.2055 110.886 11.6188 109.832 11.6188ZM170.997 17.5145C170.993 17.5793 170.977 17.6057 170.923 17.6391C170.881 17.6654 170.841 17.6776 170.796 17.6776C170.024 17.6776 168.557 15.4007 167.296 12.7795C169.197 14.5823 171.054 16.6698 170.997 17.5145ZM188.403 19.7458C188.4 19.8633 188.364 20.0041 188.118 20.1438C187.956 20.236 187.784 20.2806 187.592 20.2806C185.53 20.2806 182.331 15.5466 180.487 12.3754C184.076 14.8001 188.435 18.2447 188.403 19.7458ZM201.477 14.6006C196.653 14.6006 189.808 11.952 187.189 10.8581C189.808 9.76426 196.653 7.11568 201.477 7.11568C204.812 7.11568 206.433 8.3392 206.433 10.8581C206.433 13.3771 204.811 14.6006 201.477 14.6006Z"
    fill="#FDEEDC" />
</svg>